<?xml version="1.0" encoding="iso-8859-1"?>
<!-- Generator: Adobe Illustrator 19.0.0, SVG Export Plug-In . SVG Version: 6.00 Build 0)  -->
<svg xmlns="http://www.w3.org/2000/svg" xmlns:xlink="http://www.w3.org/1999/xlink" version="1.1" id="Layer_1" x="0px" y="0px" viewBox="0 0 512 512" style="enable-background:new 0 0 512 512;" xml:space="preserve" width="512px" height="512px">
<g>
	<g>
		<path d="M256,94.578L148.384,256L256,417.422L363.616,256L256,94.578z M272.384,335.847c-3.651,5.478-9.8,8.77-16.384,8.77    s-12.733-3.291-16.384-8.77l-45.949-68.923c-4.41-6.614-4.41-15.233,0-21.847l45.949-68.923c3.651-5.478,9.8-8.77,16.384-8.77    s12.733,3.291,16.384,8.77l45.949,68.923c4.41,6.614,4.41,15.233,0,21.847L272.384,335.847z" fill="#11e6c1"/>
	</g>
</g>
<g>
	<g>
		<polygon points="256,222.577 233.717,256 256,289.423 278.283,256   " fill="#11e6c1"/>
	</g>
</g>
<g>
	<g>
		<path d="M403.666,266.923L387.282,291.5l-19.692,29.538l-74.795,112.192l-13.128,19.692l-3.974,5.961l-3.308,4.961    c-3.651,5.478-9.8,8.77-16.384,8.77s-12.733-3.291-16.384-8.77l-3.308-4.961l-3.974-5.961l-13.128-19.692L144.41,321.038    L124.718,291.5l-16.384-24.577c-2.206-3.307-3.308-7.115-3.308-10.923v196.923v39.385c0,10.875,8.817,19.692,19.692,19.692    s19.692-8.817,19.692-19.692v-19.692h91.897v19.692c0,10.875,8.817,19.692,19.692,19.692c10.875,0,19.692-8.817,19.692-19.692    v-19.692h91.897v19.692c0,10.875,8.817,19.692,19.692,19.692c10.875,0,19.692-8.817,19.692-19.692v-39.385V256    C406.974,259.807,405.872,263.616,403.666,266.923z" fill="#11e6c1"/>
	</g>
</g>
<g>
	<g>
		<path d="M387.282,0c-10.875,0-19.692,8.817-19.692,19.692v19.692h-91.897V19.692C275.692,8.817,266.875,0,256,0    c-10.875,0-19.692,8.817-19.692,19.692v19.692H144.41V19.692C144.41,8.817,135.593,0,124.718,0s-19.692,8.817-19.692,19.692    v39.385V256c0-3.807,1.103-7.616,3.308-10.923l16.384-24.577l19.692-29.538l74.795-112.192l13.128-19.692l3.974-5.961l3.308-4.961    c3.651-5.478,9.799-8.77,16.384-8.77c6.585,0,12.733,3.291,16.384,8.77l3.308,4.961l3.974,5.961l13.128,19.692l74.795,112.192    l19.692,29.538l16.384,24.577c2.206,3.308,3.308,7.115,3.308,10.923V59.077V19.692C406.974,8.817,398.157,0,387.282,0z" fill="#11e6c1"/>
	</g>
</g>
<g>
</g>
<g>
</g>
<g>
</g>
<g>
</g>
<g>
</g>
<g>
</g>
<g>
</g>
<g>
</g>
<g>
</g>
<g>
</g>
<g>
</g>
<g>
</g>
<g>
</g>
<g>
</g>
<g>
</g>
</svg>
